# xmcd
# 
# Track frame offsets:
#     150
#     15581
#     33005
#     52354
#     68923
#     84120
#     99250
#     115391
#     129691
#     145608
#     162982
#     179970
#     197555
#     215737
# 
# Disc length: 3107
# 
# Revision: 5
# Processed by: cddbd v1.5.2PL0 Copyright (c) Steve Scherf et al.
# Submitted via: fre:ac v1.0.27
# 
DISCID=c70c210e
DTITLE=MAROON 5 - Singles
DYEAR=2015
DGENRE=Pop
TTITLE0=This Love
TTITLE1=Payphone (Feat.Wiz Khalifa)
TTITLE2=She Will Be Loved
TTITLE3=One More Night
TTITLE4=Moves Like Jagger (Feat.Christina Aguilera)
TTITLE5=Wake Up Call
TTITLE6=Misery
TTITLE7=Maps
TTITLE8=Makes Me Wonder
TTITLE9=Animals
TTITLE10=Daylight
TTITLE11=Sugar
TTITLE12=Sunday Morning (Bonus Tracks)
TTITLE13=Won't Go Home Without You (Bonus Tracks)
EXTD=YEAR: 2015
EXTT0=
EXTT1=
EXTT2=
EXTT3=
EXTT4=
EXTT5=
EXTT6=
EXTT7=
EXTT8=
EXTT9=
EXTT10=
EXTT11=
EXTT12=
EXTT13=
PLAYORDER=
